<?xml version="1.0" encoding="UTF-8"?>
<svg id="Layer_1" data-name="Layer 1" xmlns="http://www.w3.org/2000/svg" viewBox="0 0 703.68 646.16">
  <defs>
    <style>
      .cls-1 {
        fill: gray;
      }
    </style>
  </defs>
  <path class="cls-1" d="M352.32,494.36l-18.71-24.97c-16.86-19.22-37.56-34.72-59.13-48.39-23.64-14.97-76.9-36.62-86.79-62.01-5.93-15.23-4.04-33.75-4.22-49.8,18.66-5.69,24.56-28.7,12.54-43.79l41.09-43.22,22.58-21.42c15.31,11.49,35.41,1.58,40.44-15.58,13.09-1.33,27.47,2.19,40.25,1.06,15.63-1.38,16.6-16.96-.96-18.31-12.98-1-27.1.95-40.2-.12-4.41-6.55-7.69-12.07-15.33-15.39-24.15-10.52-46.44,12.1-37.21,36.25l-63.75,65.71c-3.61,2.92-11.44.09-18.04,2.13-24.93,7.68-24.3,48.57,2.18,53.55l-1.96,22.51c.14,28.76-.58,57.55,3.87,85.96-25.7-21.06-46.39-46.64-55.92-78.95-15.47-52.43-4.06-95.36,26.92-138.71,1.73-2.42,9.77-13.71,11.19-14.73,1.7-1.24,12.66-1.37,17.06-3.1,16.73-6.57,22.52-29.49,10.47-43.26,10.02-10.43,15.8-23.25,32.03-24.65l103.61.93c4.57,29.33,45.04,33.92,54.4,5.39,8.4-25.62-21.82-48.76-43.26-29.82-2.43,2.15-4.66,6.69-7.21,7.19-34.95,2.28-71.95-3.38-106.58-.98-23.17,1.6-32.12,16.96-45.6,33.2-9.17-.82-16.92-1.68-24.86,3.86-10.55,7.36-14.15,21.26-9.17,33.05,1.19,2.82,6.68,8.83,5.81,10.55-24.97,28.58-48.78,58.38-68.7,90.75-1.72.98-1.05-5.3-1.01-5.82,4.39-64.42,28.8-129.26,79.27-171.29,46.9-39.05,82.12-29.6,139.14-28.78,9.59.14,38.65,3.56,38.03-11.06-.46-10.85-16.47-7.77-23.63-8.14-45.6-2.39-92.84-3.87-138.2,1.89.59-2.33,4.46-4.56,6.5-5.98,86.13-59.99,257.2-60.02,303.54,51.13,30.5,7.94,57.43,27.94,61.88,61,22.47,13.22,45.62,27.38,66.64,42.8,11.03,8.09,37.81,26.22,18.23,39.99-12.22,8.59-32.52-1.7-46.26-.67-2.54,4.81,1.94,8.42,5.17,11.37,7.31,6.66,16.47,10.33,25.48,14.05.4,13.04-11.16,31.1-24.63,32.94-18.13,2.47-43.12-3.47-60.59,3.73-8.3,3.42-10.84,14.3-.44,15.01,16.08,1.1,36.3-4.33,53.47-3.35,2.25.13,8.68.61,10.37,1.15,3.21,1.02.09,13.33-.62,16.37-7.05,30.2-32.1,57.72-59.68,70.87-4.63-10.75-10.95-21.48-18.78-30.24-45.04-50.37-145.54-54.02-160.05-133.71-1.14-6.28.74-24.21-10.76-16.98-6.09,3.83-3.43,9.18-6.33,13.83l-53.73,56.69c-42.62-4.7-40.28,61.79,3.41,53.3,3.01-.58,6.05-3.43,8.93-1.37l52.55,52.18c2.11,2.9-1.38,6.12-2.28,9.35-4.36,15.66,3.83,28.07,18.09,34.35,1.39,2.18-.53,3.58-.53,4.34v56.16ZM502.08,149.72h-56.64c1.97,17.24,16.46,32.46,34.81,29.53,11.79-1.89,24.36-17.49,21.83-29.53Z"/>
  <path class="cls-1" d="M328.31,249.56c1.28,7.1,4.88,14.57,8.48,20.81,30.81,53.32,113.29,67.26,98.57,144.33-6.55,34.32-36.4,57.17-65.3,72.94l-.38-53.11c5.31-3.76,10.08-5.36,14.28-10.75,14.62-18.75,1.01-44.82-22.54-44.61-3.31.03-7.04,2.82-10.04,1.45l-56.74-55.87c4.15-11.79,3.46-23.22-5.61-32.47l39.27-42.72Z"/>
  <path class="cls-1" d="M176.64,522.68c.18-1.8,1.15-7.57,2.53-8.03,3.85-1.27,10.51.56,14.37.74,3.34.15,7.84-1.11,11.74.25l39.04,72.78,37.92-72.94h28.8l.06,127.26-25.03-.54-1.44-76.8-30.18,57.17c-1.94,1.98-14.51,1.83-17.87,1.44-1.39-.16-2.52-.1-3.21-1.59-9.44-16.68-17.33-34.3-26.81-50.95-1.3-2.28-2.87-5.5-4.97-7.03v77.28c0,2.42-5.65.47-7.16.43-5.92-.16-11.89.21-17.8.05v-119.52Z"/>
  <path class="cls-1" d="M0,642.2l49.4-126.79,25.38.16,47.14,126.62h-27.84l-7.78-23.9-50.89.5-9.48,23.95c-.67.43-1.26-.54-1.46-.54H0ZM76.8,595.16c-5.79-12.55-8.38-27.57-14.34-39.9-.54-1.12-.82-2.56-2.45-2.35l-14.89,42.25h31.68Z"/>
  <path class="cls-1" d="M519.7,562.85c24.26-24.6,72.22-16.29,82.7,17.9,13.71,44.71-30.11,79.54-71.22,59.7-28.17-13.6-32.7-56.09-11.49-77.6ZM548.86,572.33c-23.19,4.7-23.5,56.13,12.03,50.43,24.75-3.97,23.37-47.39.15-50.56-2.96-.41-9.31-.45-12.18.13Z"/>
  <path class="cls-1" d="M703.68,643.16h-23.52l-1.44-1.44v-56.64c0-.43-2.49-5.73-3.04-6.56-5.96-9.12-24.47-9.09-29.8.61-.4.73-2.68,6.55-2.68,6.92v55.68l-1.44,1.44h-23.52v-91.2h23.52c3.85,2.67-1.16,8.77,2.38,10.56,8.14-15.06,34.78-17.41,47.96-8.1,4.97,3.51,11.58,14.07,11.58,20.1v68.64Z"/>
  <polygon class="cls-1" points="404.16 620.12 457.92 620.12 457.92 643.16 378.24 643.16 378.24 515.96 379.68 514.52 402.72 514.52 404.16 515.96 404.16 620.12"/>
  <polygon class="cls-1" points="493.44 551.96 493.44 643.16 468.96 643.16 467.52 641.72 467.52 553.4 468.96 551.96 493.44 551.96"/>
  <path class="cls-1" d="M332.16,643.16v-91.2h24.48l1.44,1.44v88.32c-3.18,3.22-7.99.4-12,.39-4.41,0-9.2,1.92-13.92,1.05Z"/>
  <path class="cls-1" d="M157.44,642.2h-22.56c-.3,0-1.36,1.32-2.39.96l-.87-22.66.86-68.54h23.52l1.44,1.44v88.8Z"/>
  <path class="cls-1" d="M476.86,510.9c25.17-5.21,24.86,32.18.98,28.35-16.61-2.66-15.22-25.41-.98-28.35Z"/>
  <path class="cls-1" d="M142.84,510.88c18.97-1.86,20.54,25.03,4.46,27.57-21.26,3.36-23.45-25.71-4.46-27.57Z"/>
  <path class="cls-1" d="M335.37,514.84c11.87-11.84,32.37,4.13,21.76,18.4-11.53,15.52-36.36-3.83-21.76-18.4Z"/>
  <path class="cls-1" d="M148.18,149.09c11.43-12.59,29.36,5.79,16.99,17.47-11.36,10.74-27.39-6.01-16.99-17.47Z"/>
  <path class="cls-1" d="M165.44,292.43c-10.92-10.43,4.78-29.72,16.86-18.3s-5.34,29.3-16.86,18.3Z"/>
  <path class="cls-1" d="M357.8,394.72c18.29-4.22,22.3,24.89,2.65,23.86-14.97-.79-13.57-21.34-2.65-23.86Z"/>
  <path class="cls-1" d="M278.1,304.57c4.01,4.42,2.87,14.36-2.09,17.95-12.95,9.36-26.1-8.26-15.77-18.65,4.65-4.67,13.61-3.98,17.87.7Z"/>
  <path class="cls-1" d="M269.5,166.27c20.78-3.84,19.49,25.69,1.8,23.7-12.47-1.4-14.23-21.4-1.8-23.7Z"/>
  <path class="cls-1" d="M351.04,103.96c10.89,11.39-6.33,29.22-17.49,17.01-10.93-11.96,7.09-27.89,17.49-17.01Z"/>
</svg>